<svg id="Calque_1" data-name="Calque 1" xmlns="http://www.w3.org/2000/svg" viewBox="0 0 481.79 113.6"><defs><style>.cls-1,.cls-2{fill:none;stroke:#c94817;stroke-miterlimit:10;}.cls-1{stroke-width:14px;stroke-dasharray:1 6 6 6;}.cls-2{stroke-width:20px;stroke-dasharray:1 12 0 6;}.cls-3{fill:#216983;}.cls-4{fill:#ea5927;}</style></defs><path class="cls-1" d="M441.41,410.77a46.79,46.79,0,1,1,10.68,77.16" transform="translate(-48.33 -388.98)"/><path class="cls-2" d="M441.41,410.77a46.79,46.79,0,1,1,10.68,77.16" transform="translate(-48.33 -388.98)"/><path class="cls-3" d="M63,423h7.7l2.74,28H66.73l-.56-15c-.11-2.71-.22-5.26-.25-8.15h-.17c-1.17,2.82-2.17,5.43-3.42,8.15l-6.92,15H48.33ZM57,439.44h12.9l-1.12,4.84H55.81Z" transform="translate(-48.33 -388.98)"/><path class="cls-3" d="M79.88,423h6.43l-3,15.19a19.42,19.42,0,0,0-.35,3.2c0,3,1,4.56,3.95,4.56,2.59,0,4.14-2,5.12-6.94l3.21-16h6.28l-3.23,15.88c-1.7,8.68-5.35,12.62-11.55,12.62-6.81,0-10.21-3.17-10.21-9.92a30.66,30.66,0,0,1,.58-4.63Z" transform="translate(-48.33 -388.98)"/><path class="cls-3" d="M111.89,428.37H104.7l1-5.4h20.82l-1,5.4h-7.2L113.86,451h-6.44Z" transform="translate(-48.33 -388.98)"/><path class="cls-3" d="M125.8,439.61c0-10.18,6.87-17.16,14.36-17.16,6.43,0,10.69,4.35,10.69,11.86,0,10.18-6.87,17.16-14.35,17.16C130.07,451.47,125.8,447.12,125.8,439.61Zm18.46-4.89c0-4.22-1.61-6.72-4.43-6.72-3.54,0-7.44,4.73-7.44,11.2,0,4.22,1.61,6.72,4.43,6.72C140.37,445.92,144.26,441.19,144.26,434.72Z" transform="translate(-48.33 -388.98)"/><path class="cls-3" d="M167.28,423h16.84l-1.05,5.39H172.58l-1.05,5.44h8.9l-1.05,5.39h-8.89l-1.33,6.37H180L179,451H161.68Zm5.25-5.07,8.67-5.4,2.83,4.71L175,421.59Z" transform="translate(-48.33 -388.98)"/><path class="cls-3" d="M185.8,439.66c0-9.84,6.67-17.21,15-17.21a8.45,8.45,0,0,1,7.56,4.51L204,430.34c-1-1.58-2.13-2.34-3.53-2.34-4.38,0-8.08,5.12-8.08,11.25,0,4.17,1.63,6.67,5.57,6.67a7.33,7.33,0,0,0,4.51-2.05l2.67,4.11a12.83,12.83,0,0,1-8.53,3.49C190.09,451.47,185.8,447.13,185.8,439.66Z" transform="translate(-48.33 -388.98)"/><path class="cls-3" d="M206.33,439.61c0-10.18,6.87-17.16,14.35-17.16,6.43,0,10.7,4.35,10.7,11.86,0,10.18-6.87,17.16-14.36,17.16C210.59,451.47,206.33,447.12,206.33,439.61Zm18.46-4.89c0-4.22-1.61-6.72-4.43-6.72-3.55,0-7.44,4.73-7.44,11.2,0,4.22,1.61,6.72,4.43,6.72C220.89,445.92,224.79,441.19,224.79,434.72Z" transform="translate(-48.33 -388.98)"/><path class="cls-3" d="M239.25,423h6.43l-4.55,22.59H251.5L250.45,451h-16.8Z" transform="translate(-48.33 -388.98)"/><path class="cls-3" d="M261.05,423h16.84l-1.05,5.39H266.35l-1.06,5.44h8.9l-1.05,5.39h-8.89l-1.33,6.37h10.84L272.71,451H255.45Z" transform="translate(-48.33 -388.98)"/><path class="cls-3" d="M292.47,423h6.37c7.83,0,12.48,3.52,12.48,11,0,11.21-6.58,17-15.45,17h-9Zm3.25,22.83c5,0,9-3.3,9-11.42,0-4.5-2.48-6.26-6.05-6.26h-.82l-3.51,17.68Z" transform="translate(-48.33 -388.98)"/><path class="cls-3" d="M319.05,423h6.43l-3,15.19a20.57,20.57,0,0,0-.35,3.2c0,3,1,4.56,4,4.56,2.59,0,4.14-2,5.12-6.94l3.22-16h6.27l-3.22,15.88c-1.71,8.68-5.36,12.62-11.56,12.62-6.8,0-10.21-3.17-10.21-9.92a30.66,30.66,0,0,1,.58-4.63Z" transform="translate(-48.33 -388.98)"/><path class="cls-3" d="M342.77,439.66c0-9.84,6.67-17.21,15-17.21a8.48,8.48,0,0,1,7.57,4.51L361,430.34c-1-1.58-2.13-2.34-3.53-2.34-4.38,0-8.07,5.12-8.07,11.25,0,4.17,1.62,6.67,5.56,6.67a7.33,7.33,0,0,0,4.52-2.05l2.67,4.11a12.86,12.86,0,0,1-8.54,3.49C347.05,451.47,342.77,447.13,342.77,439.66Z" transform="translate(-48.33 -388.98)"/><path class="cls-3" d="M371.66,423h6.44l-2.19,10.67h8.9L386.92,423h6.43l-5.6,28h-6.43l2.37-11.68h-8.9L372.5,451h-6.43Z" transform="translate(-48.33 -388.98)"/><path class="cls-3" d="M400,423h16.84l-1,5.39H405.3l-1.06,5.44h8.9l-1.05,5.39H403.2l-1.33,6.37h10.84l-1,5.39H394.4Z" transform="translate(-48.33 -388.98)"/><path class="cls-3" d="M422.87,423h6.74l1.88,12.44.69,4.87h.17l2.52-4.87L441.64,423h6.74l-5.6,28h-6l2.13-10.13c.6-2.87,1.75-6.82,2.67-9.61h-.14l-3.47,6.5-6.24,10.76h-2.49l-1.9-10.76-.88-6.5h-.13c-.23,2.8-.54,6.82-1.09,9.61L423.15,451h-5.88Z" transform="translate(-48.33 -388.98)"/><path class="cls-3" d="M455,423h6.43l-5.6,28h-6.43Z" transform="translate(-48.33 -388.98)"/><path class="cls-3" d="M468.05,423h6.21l4.19,13.85,1.43,6.23h.18l48.86-30.69,1.2,2.22L479.89,451l-2.42,0-4.19-13.85-1.35-6.25h-.18a94.06,94.06,0,0,1-1.22,10.29l-2,9.81h-6.11Z" transform="translate(-48.33 -388.98)"/><path class="cls-4" d="M58.56,462h1.68l3.95,11.7H62.62l-2-6.53c-.42-1.31-.8-2.59-1.17-3.94h-.08c-.36,1.35-.73,2.63-1.15,3.94l-2.07,6.53H54.6Zm-1.88,7h5.39v1.19H56.68Z" transform="translate(-48.33 -388.98)"/><path class="cls-4" d="M79.08,468.9V462h1.49v6.91c0,2.81,1.19,3.7,2.72,3.7s2.77-.89,2.77-3.7V462h1.43v6.87c0,3.75-1.82,5-4.2,5S79.08,472.65,79.08,468.9Z" transform="translate(-48.33 -388.98)"/><path class="cls-4" d="M106.62,463.29h-3.54V462h8.56v1.26H108.1v10.44h-1.48Z" transform="translate(-48.33 -388.98)"/><path class="cls-4" d="M126.18,467.84c0-3.75,2.06-6,5-6s5,2.28,5,6-2.06,6.1-5,6.1S126.18,471.59,126.18,467.84Zm8.46,0c0-2.91-1.37-4.71-3.46-4.71s-3.46,1.8-3.46,4.71,1.37,4.8,3.46,4.8S134.64,470.75,134.64,467.84Z" transform="translate(-48.33 -388.98)"/><path class="cls-4" d="M168.48,469a2,2,0,1,1,2,2.15A2,2,0,0,1,168.48,469Z" transform="translate(-48.33 -388.98)"/><path class="cls-4" d="M205.45,462h1.79l2.24,6.25c.28.8.55,1.63.83,2.44h.07c.28-.81.53-1.64.81-2.44l2.22-6.25h1.79v11.7h-1.38v-6.44c0-1,.11-2.42.19-3.46h-.08L213,466.5l-2.21,6.05h-1l-2.22-6.05-.92-2.67h-.08c.08,1,.19,2.44.19,3.46v6.44h-1.34Z" transform="translate(-48.33 -388.98)"/><path class="cls-4" d="M231.28,467.84c0-3.75,2.06-6,5-6s5,2.28,5,6-2.07,6.1-5,6.1S231.28,471.59,231.28,467.84Zm8.46,0c0-2.91-1.37-4.71-3.46-4.71s-3.47,1.8-3.47,4.71,1.38,4.8,3.47,4.8S239.74,470.75,239.74,467.84Z" transform="translate(-48.33 -388.98)"/><path class="cls-4" d="M259.35,463.29h-3.54V462h8.57v1.26h-3.54v10.44h-1.49Z" transform="translate(-48.33 -388.98)"/><path class="cls-4" d="M278.92,467.84c0-3.75,2.06-6,5-6s5,2.28,5,6-2.06,6.1-5,6.1S278.92,471.59,278.92,467.84Zm8.46,0c0-2.91-1.38-4.71-3.47-4.71s-3.46,1.8-3.46,4.71,1.38,4.8,3.46,4.8S287.38,470.75,287.38,467.84Z" transform="translate(-48.33 -388.98)"/><path class="cls-4" d="M321.21,469a2,2,0,1,1,2,2.15A2,2,0,0,1,321.21,469Z" transform="translate(-48.33 -388.98)"/><path class="cls-4" d="M358.18,462h3.47c2.38,0,4,.81,4,2.87a2.57,2.57,0,0,1-1.71,2.54v.07a2.7,2.7,0,0,1,2.38,2.8c0,2.3-1.82,3.42-4.43,3.42h-3.74Zm3.22,5c2,0,2.81-.73,2.81-1.92,0-1.37-.93-1.88-2.74-1.88h-1.8V467Zm.31,5.54c2,0,3.17-.72,3.17-2.3s-1.13-2.1-3.17-2.1h-2v4.4Z" transform="translate(-48.33 -388.98)"/><path class="cls-4" d="M384.62,462h1.68l4,11.7h-1.58l-2-6.53c-.42-1.31-.8-2.59-1.17-3.94h-.07c-.36,1.35-.74,2.63-1.16,3.94l-2.06,6.53h-1.52Zm-1.88,7h5.39v1.19h-5.39Z" transform="translate(-48.33 -388.98)"/><path class="cls-4" d="M406.92,463.29h-3.54V462h8.56v1.26h-3.53v10.44h-1.49Z" transform="translate(-48.33 -388.98)"/><path class="cls-4" d="M427.59,462h6.74v1.26h-5.25V467h4.43v1.26h-4.43v4.25h5.43v1.26h-6.92Z" transform="translate(-48.33 -388.98)"/><path class="cls-4" d="M452.94,462h1.68l3.95,11.7H457l-2-6.53c-.42-1.31-.8-2.59-1.17-3.94h-.07c-.37,1.35-.74,2.63-1.16,3.94l-2.06,6.53H449Zm-1.88,7h5.39v1.19h-5.39Z" transform="translate(-48.33 -388.98)"/><path class="cls-4" d="M473.46,468.9V462H475v6.91c0,2.81,1.19,3.7,2.72,3.7s2.77-.89,2.77-3.7V462h1.43v6.87c0,3.75-1.81,5-4.2,5S473.46,472.65,473.46,468.9Z" transform="translate(-48.33 -388.98)"/></svg>